0, 0, Header, 1, 4, 1024
1, 0, Start_track
1, 0, Time_signature, 4, 2, 24, 8
1, 0, Key_signature, -3, "minor"
1, 0, Tempo, 600000
1, 0, Tempo, 714285
1, 53760, Tempo, 722891
1, 54272, Tempo, 731707
1, 54784, Tempo, 740740
1, 55296, Tempo, 750000
1, 57856, Tempo, 714285
1, 111360, Tempo, 731707
1, 112128, Tempo, 750000
1, 112896, Tempo, 769230
1, 113664, Tempo, 789473
1, 116736, Tempo, 789473
1, 119296, Tempo, 810810
1, 119808, Tempo, 833333
1, 120320, Tempo, 857142
1, 120832, Tempo, 882352
1, 123392, Tempo, 1000000
1, 123904, Tempo, 1153846
1, 124416, Tempo, 1363636
1, 124928, Tempo, 1666666
1, 129024, End_track
2, 0, Start_track
2, 0, Title_t, "Guitar 2"
2, 0, Program_c, 1, 24
2, 0, Control_c, 1, 7, 120
2, 0, Control_c, 1, 10, 40
2, 512, Note_on_c, 1, 60, 102
2, 768, Note_off_c, 1, 60, 0
2, 768, Note_on_c, 1, 59, 102
2, 1024, Note_off_c, 1, 59, 0
2, 1024, Note_on_c, 1, 60, 102
2, 1536, Note_off_c, 1, 60, 0
2, 1536, Note_on_c, 1, 55, 102
2, 2048, Note_off_c, 1, 55, 0
2, 2048, Note_on_c, 1, 56, 102
2, 2560, Note_off_c, 1, 56, 0
2, 2560, Note_on_c, 1, 60, 102
2, 2816, Note_off_c, 1, 60, 0
2, 2816, Note_on_c, 1, 59, 102
2, 3072, Note_off_c, 1, 59, 0
2, 3072, Note_on_c, 1, 60, 102
2, 3584, Note_off_c, 1, 60, 0
2, 3584, Note_on_c, 1, 62, 102
2, 4096, Note_off_c, 1, 62, 0
2, 4096, Note_on_c, 1, 55, 102
2, 4608, Note_off_c, 1, 55, 0
2, 4608, Note_on_c, 1, 60, 102
2, 4864, Note_off_c, 1, 60, 0
2, 4864, Note_on_c, 1, 59, 102
2, 5120, Note_off_c, 1, 59, 0
2, 5120, Note_on_c, 1, 60, 102
2, 5632, Note_off_c, 1, 60, 0
2, 5632, Note_on_c, 1, 62, 102
2, 6144, Note_off_c, 1, 62, 0
2, 6144, Note_on_c, 1, 53, 102
2, 6400, Note_off_c, 1, 53, 0
2, 6400, Note_on_c, 1, 55, 102
2, 6656, Note_off_c, 1, 55, 0
2, 6656, Note_on_c, 1, 56, 102
2, 7680, Note_off_c, 1, 56, 0
2, 7680, Note_on_c, 1, 55, 102
2, 7936, Note_off_c, 1, 55, 0
2, 7936, Note_on_c, 1, 53, 102
2, 8192, Note_off_c, 1, 53, 0
2, 8192, Note_on_c, 1, 51, 102
2, 8448, Note_off_c, 1, 51, 0
2, 8448, Note_on_c, 1, 60, 102
2, 8704, Note_off_c, 1, 60, 0
2, 8704, Note_on_c, 1, 59, 102
2, 8960, Note_off_c, 1, 59, 0
2, 8960, Note_on_c, 1, 57, 102
2, 9216, Note_off_c, 1, 57, 0
2, 9216, Note_on_c, 1, 55, 102
2, 9472, Note_off_c, 1, 55, 0
2, 9472, Note_on_c, 1, 53, 102
2, 9728, Note_off_c, 1, 53, 0
2, 9728, Note_on_c, 1, 51, 102
2, 9984, Note_off_c, 1, 51, 0
2, 9984, Note_on_c, 1, 50, 102
2, 10240, Note_off_c, 1, 50, 0
2, 10240, Note_on_c, 1, 48, 102
2, 10752, Note_off_c, 1, 48, 0
2, 10752, Note_on_c, 1, 63, 102
2, 11264, Note_off_c, 1, 63, 0
2, 11264, Note_on_c, 1, 62, 102
2, 11776, Note_off_c, 1, 62, 0
2, 11776, Note_on_c, 1, 60, 102
2, 12288, Note_off_c, 1, 60, 0
2, 12288, Note_on_c, 1, 58, 102
2, 12800, Note_off_c, 1, 58, 0
2, 12800, Note_on_c, 1, 57, 102
2, 13312, Note_off_c, 1, 57, 0
2, 13312, Note_on_c, 1, 58, 102
2, 13824, Note_off_c, 1, 58, 0
2, 13824, Note_on_c, 1, 60, 102
2, 14336, Note_off_c, 1, 60, 0
2, 14336, Note_on_c, 1, 54, 102
2, 14848, Note_off_c, 1, 54, 0
2, 14848, Note_on_c, 1, 55, 102
2, 15360, Note_off_c, 1, 55, 0
2, 15360, Note_on_c, 1, 57, 102
2, 15872, Note_off_c, 1, 57, 0
2, 15872, Note_on_c, 1, 54, 102
2, 16384, Note_off_c, 1, 54, 0
2, 16384, Note_on_c, 1, 55, 102
2, 17408, Note_off_c, 1, 55, 0
2, 17664, Note_on_c, 1, 48, 102
2, 17920, Note_off_c, 1, 48, 0
2, 17920, Note_on_c, 1, 50, 102
2, 18176, Note_off_c, 1, 50, 0
2, 18176, Note_on_c, 1, 51, 102
2, 18432, Note_off_c, 1, 51, 0
2, 18432, Note_on_c, 1, 53, 102
2, 18688, Note_off_c, 1, 53, 0
2, 18688, Note_on_c, 1, 55, 102
2, 18944, Note_off_c, 1, 55, 0
2, 18944, Note_on_c, 1, 56, 102
2, 19712, Note_off_c, 1, 56, 0
2, 19712, Note_on_c, 1, 50, 102
2, 19968, Note_off_c, 1, 50, 0
2, 19968, Note_on_c, 1, 51, 102
2, 20224, Note_off_c, 1, 51, 0
2, 20224, Note_on_c, 1, 53, 102
2, 20480, Note_off_c, 1, 53, 0
2, 20480, Note_on_c, 1, 55, 102
2, 20736, Note_off_c, 1, 55, 0
2, 20736, Note_on_c, 1, 57, 102
2, 20992, Note_off_c, 1, 57, 0
2, 20992, Note_on_c, 1, 58, 102
2, 21760, Note_off_c, 1, 58, 0
2, 21760, Note_on_c, 1, 51, 102
2, 22016, Note_off_c, 1, 51, 0
2, 22016, Note_on_c, 1, 53, 102
2, 22272, Note_off_c, 1, 53, 0
2, 22272, Note_on_c, 1, 55, 102
2, 22528, Note_off_c, 1, 55, 0
2, 22528, Note_on_c, 1, 56, 102
2, 22784, Note_off_c, 1, 56, 0
2, 22784, Note_on_c, 1, 55, 102
2, 23040, Note_off_c, 1, 55, 0
2, 23040, Note_on_c, 1, 53, 102
2, 23296, Note_off_c, 1, 53, 0
2, 23296, Note_on_c, 1, 51, 102
2, 23552, Note_off_c, 1, 51, 0
2, 23552, Note_on_c, 1, 50, 102
2, 24064, Note_off_c, 1, 50, 0
2, 24064, Note_on_c, 1, 60, 102
2, 24320, Note_off_c, 1, 60, 0
2, 24320, Note_on_c, 1, 59, 102
2, 24576, Note_off_c, 1, 59, 0
2, 24576, Note_on_c, 1, 60, 102
2, 25088, Note_on_c, 1, 48, 112
2, 25344, Note_off_c, 1, 48, 0
2, 25344, Note_on_c, 1, 47, 112
2, 25600, Note_off_c, 1, 60, 0
2, 25600, Note_off_c, 1, 47, 0
2, 25600, Note_on_c, 1, 48, 112
2, 26112, Note_off_c, 1, 48, 0
2, 26112, Note_on_c, 1, 43, 112
2, 26624, Note_off_c, 1, 43, 0
2, 26624, Note_on_c, 1, 44, 112
2, 27136, Note_on_c, 1, 65, 112
2, 27136, Note_off_c, 1, 44, 0
2, 27136, Note_on_c, 1, 48, 112
2, 27392, Note_off_c, 1, 48, 0
2, 27392, Note_on_c, 1, 47, 112
2, 27648, Note_off_c, 1, 65, 0
2, 27648, Note_on_c, 1, 63, 112
2, 27648, Note_off_c, 1, 47, 0
2, 27648, Note_on_c, 1, 48, 112
2, 28160, Note_off_c, 1, 63, 0
2, 28160, Note_on_c, 1, 62, 112
2, 28160, Note_off_c, 1, 48, 0
2, 28160, Note_on_c, 1, 50, 112
2, 28672, Note_off_c, 1, 62, 0
2, 28672, Note_off_c, 1, 50, 0
2, 28672, Note_on_c, 1, 43, 112
2, 29184, Note_on_c, 1, 56, 112
2, 29184, Note_off_c, 1, 43, 0
2, 29184, Note_on_c, 1, 48, 112
2, 29440, Note_off_c, 1, 48, 0
2, 29440, Note_on_c, 1, 47, 112
2, 29696, Note_off_c, 1, 56, 0
2, 29696, Note_on_c, 1, 55, 112
2, 29696, Note_off_c, 1, 47, 0
2, 29696, Note_on_c, 1, 48, 112
2, 30208, Note_off_c, 1, 55, 0
2, 30208, Note_on_c, 1, 53, 112
2, 30208, Note_off_c, 1, 48, 0
2, 30208, Note_on_c, 1, 50, 112
2, 30720, Note_off_c, 1, 53, 0
2, 30720, Note_on_c, 1, 55, 112
2, 30720, Note_off_c, 1, 50, 0
2, 30720, Note_on_c, 1, 41, 112
2, 30976, Note_off_c, 1, 41, 0
2, 30976, Note_on_c, 1, 43, 112
2, 31232, Note_off_c, 1, 55, 0
2, 31232, Note_on_c, 1, 53, 112
2, 31232, Note_off_c, 1, 43, 0
2, 31232, Note_on_c, 1, 44, 112
2, 31488, Note_off_c, 1, 53, 0
2, 31488, Note_on_c, 1, 51, 112
2, 31744, Note_off_c, 1, 51, 0
2, 31744, Note_on_c, 1, 53, 112
2, 32256, Note_off_c, 1, 53, 0
2, 32256, Note_on_c, 1, 50, 112
2, 32256, Note_off_c, 1, 44, 0
2, 32256, Note_on_c, 1, 43, 112
2, 32512, Note_off_c, 1, 43, 0
2, 32512, Note_on_c, 1, 41, 112
2, 32768, Note_off_c, 1, 50, 0
2, 32768, Note_off_c, 1, 41, 0
2, 32768, Note_on_c, 1, 39, 112
2, 33024, Note_on_c, 1, 60, 112
2, 33280, Note_off_c, 1, 60, 0
2, 33280, Note_on_c, 1, 59, 112
2, 33536, Note_off_c, 1, 39, 0
2, 33536, Note_off_c, 1, 59, 0
2, 33536, Note_on_c, 1, 57, 112
2, 33792, Note_off_c, 1, 57, 0
2, 33792, Note_on_c, 1, 55, 112
2, 34048, Note_off_c, 1, 55, 0
2, 34048, Note_on_c, 1, 53, 112
2, 34304, Note_off_c, 1, 53, 0
2, 34304, Note_on_c, 1, 51, 112
2, 34560, Note_off_c, 1, 51, 0
2, 34560, Note_on_c, 1, 50, 112
2, 34816, Note_off_c, 1, 50, 0
2, 34816, Note_on_c, 1, 48, 112
2, 35072, Note_off_c, 1, 48, 0
2, 35072, Note_on_c, 1, 50, 112
2, 35328, Note_off_c, 1, 50, 0
2, 35328, Note_on_c, 1, 51, 112
2, 35584, Note_off_c, 1, 51, 0
2, 35584, Note_on_c, 1, 50, 112
2, 35840, Note_off_c, 1, 50, 0
2, 35840, Note_on_c, 1, 48, 112
2, 36096, Note_off_c, 1, 48, 0
2, 36096, Note_on_c, 1, 46, 112
2, 36352, Note_off_c, 1, 46, 0
2, 36352, Note_on_c, 1, 44, 112
2, 36608, Note_off_c, 1, 44, 0
2, 36608, Note_on_c, 1, 43, 112
2, 36864, Note_off_c, 1, 43, 0
2, 36864, Note_on_c, 1, 41, 112
2, 37120, Note_off_c, 1, 41, 0
2, 37120, Note_on_c, 1, 58, 112
2, 37376, Note_off_c, 1, 58, 0
2, 37376, Note_on_c, 1, 56, 112
2, 37632, Note_off_c, 1, 56, 0
2, 37632, Note_on_c, 1, 55, 112
2, 37888, Note_off_c, 1, 55, 0
2, 37888, Note_on_c, 1, 53, 112
2, 38144, Note_off_c, 1, 53, 0
2, 38144, Note_on_c, 1, 51, 112
2, 38400, Note_off_c, 1, 51, 0
2, 38400, Note_on_c, 1, 50, 112
2, 38656, Note_off_c, 1, 50, 0
2, 38656, Note_on_c, 1, 48, 112
2, 38912, Note_off_c, 1, 48, 0
2, 38912, Note_on_c, 1, 46, 112
2, 39168, Note_off_c, 1, 46, 0
2, 39168, Note_on_c, 1, 48, 112
2, 39424, Note_off_c, 1, 48, 0
2, 39424, Note_on_c, 1, 50, 112
2, 39680, Note_off_c, 1, 50, 0
2, 39680, Note_on_c, 1, 48, 112
2, 39936, Note_off_c, 1, 48, 0
2, 39936, Note_on_c, 1, 46, 112
2, 40192, Note_off_c, 1, 46, 0
2, 40192, Note_on_c, 1, 44, 112
2, 40448, Note_off_c, 1, 44, 0
2, 40448, Note_on_c, 1, 43, 112
2, 40704, Note_off_c, 1, 43, 0
2, 40704, Note_on_c, 1, 41, 112
2, 40960, Note_off_c, 1, 41, 0
2, 40960, Note_on_c, 1, 39, 112
2, 41216, Note_off_c, 1, 39, 0
2, 41216, Note_on_c, 1, 56, 112
2, 41472, Note_off_c, 1, 56, 0
2, 41472, Note_on_c, 1, 55, 112
2, 41728, Note_off_c, 1, 55, 0
2, 41728, Note_on_c, 1, 53, 112
2, 41984, Note_off_c, 1, 53, 0
2, 41984, Note_on_c, 1, 51, 112
2, 42240, Note_off_c, 1, 51, 0
2, 42240, Note_on_c, 1, 49, 112
2, 42496, Note_off_c, 1, 49, 0
2, 42496, Note_on_c, 1, 48, 112
2, 42752, Note_off_c, 1, 48, 0
2, 42752, Note_on_c, 1, 46, 112
2, 43008, Note_off_c, 1, 46, 0
2, 43008, Note_on_c, 1, 44, 112
2, 43520, Note_off_c, 1, 44, 0
2, 43520, Note_on_c, 1, 60, 112
2, 44032, Note_off_c, 1, 60, 0
2, 44032, Note_on_c, 1, 58, 112
2, 44544, Note_off_c, 1, 58, 0
2, 44544, Note_on_c, 1, 56, 112
2, 45056, Note_off_c, 1, 56, 0
2, 45056, Note_on_c, 1, 55, 112
2, 45568, Note_on_c, 1, 56, 112
2, 45568, Note_off_c, 1, 55, 0
2, 45568, Note_on_c, 1, 53, 112
2, 46080, Note_off_c, 1, 56, 0
2, 46080, Note_on_c, 1, 58, 112
2, 46080, Note_off_c, 1, 53, 0
2, 46080, Note_on_c, 1, 55, 112
2, 46592, Note_off_c, 1, 58, 0
2, 46592, Note_on_c, 1, 60, 112
2, 46592, Note_off_c, 1, 55, 0
2, 46592, Note_on_c, 1, 56, 112
2, 47104, Note_off_c, 1, 60, 0
2, 47104, Note_off_c, 1, 56, 0
2, 47104, Note_on_c, 1, 50, 112
2, 47616, Note_on_c, 1, 56, 112
2, 47616, Note_off_c, 1, 50, 0
2, 47616, Note_on_c, 1, 51, 112
2, 47872, Note_off_c, 1, 56, 0
2, 47872, Note_on_c, 1, 55, 112
2, 48128, Note_off_c, 1, 55, 0
2, 48128, Note_on_c, 1, 56, 112
2, 48128, Note_off_c, 1, 51, 0
2, 48128, Note_on_c, 1, 53, 112
2, 48640, Note_off_c, 1, 56, 0
2, 48640, Note_on_c, 1, 53, 112
2, 48640, Note_off_c, 1, 53, 0
2, 48640, Note_on_c, 1, 50, 112
2, 49152, Note_off_c, 1, 53, 0
2, 49152, Note_off_c, 1, 50, 0
2, 49152, Note_on_c, 1, 58, 112
2, 49152, Note_on_c, 1, 51, 112
2, 49664, Note_off_c, 1, 58, 0
2, 49664, Note_on_c, 1, 60, 112
2, 49664, Note_off_c, 1, 51, 0
2, 49664, Note_on_c, 1, 56, 112
2, 50176, Note_off_c, 1, 60, 0
2, 50176, Note_on_c, 1, 58, 112
2, 50176, Note_off_c, 1, 56, 0
2, 50176, Note_on_c, 1, 55, 112
2, 50688, Note_off_c, 1, 58, 0
2, 50688, Note_on_c, 1, 56, 112
2, 50688, Note_off_c, 1, 55, 0
2, 50688, Note_on_c, 1, 53, 112
2, 51200, Note_off_c, 1, 56, 0
2, 51200, Note_on_c, 1, 58, 112
2, 51200, Note_off_c, 1, 53, 0
2, 51200, Note_on_c, 1, 55, 112
2, 51712, Note_off_c, 1, 58, 0
2, 51712, Note_on_c, 1, 55, 112
2, 51712, Note_off_c, 1, 55, 0
2, 51712, Note_on_c, 1, 51, 112
2, 52224, Note_off_c, 1, 55, 0
2, 52224, Note_on_c, 1, 53, 112
2, 52224, Note_off_c, 1, 51, 0
2, 52224, Note_on_c, 1, 50, 112
2, 52736, Note_off_c, 1, 53, 0
2, 52736, Note_on_c, 1, 51, 112
2, 52736, Note_off_c, 1, 50, 0
2, 52736, Note_on_c, 1, 48, 112
2, 53248, Note_off_c, 1, 51, 0
2, 53248, Note_off_c, 1, 48, 0
2, 53248, Note_on_c, 1, 53, 112
2, 53248, Note_on_c, 1, 50, 112
2, 53760, Note_off_c, 1, 53, 0
2, 53760, Note_on_c, 1, 61, 110
2, 53760, Note_off_c, 1, 50, 0
2, 53760, Note_on_c, 1, 58, 110
2, 54272, Note_off_c, 1, 61, 0
2, 54272, Note_on_c, 1, 60, 108
2, 54272, Note_off_c, 1, 58, 0
2, 54272, Note_on_c, 1, 56, 108
2, 54784, Note_off_c, 1, 60, 0
2, 54784, Note_on_c, 1, 58, 106
2, 54784, Note_off_c, 1, 56, 0
2, 54784, Note_on_c, 1, 55, 106
2, 55296, Note_off_c, 1, 58, 0
2, 55296, Note_on_c, 1, 60, 102
2, 55296, Note_off_c, 1, 55, 0
2, 55296, Note_on_c, 1, 56, 102
2, 55808, Note_off_c, 1, 60, 0
2, 55808, Note_on_c, 1, 56, 102
2, 55808, Note_off_c, 1, 56, 0
2, 55808, Note_on_c, 1, 53, 102
2, 56320, Note_off_c, 1, 56, 0
2, 56320, Note_on_c, 1, 55, 102
2, 56320, Note_off_c, 1, 53, 0
2, 56320, Note_on_c, 1, 51, 102
2, 56832, Note_off_c, 1, 55, 0
2, 56832, Note_on_c, 1, 53, 102
2, 56832, Note_off_c, 1, 51, 0
2, 56832, Note_on_c, 1, 50, 102
2, 57344, Note_off_c, 1, 53, 0
2, 57344, Note_off_c, 1, 50, 0
2, 57344, Note_on_c, 1, 55, 102
2, 57344, Note_on_c, 1, 51, 102
2, 57856, Note_off_c, 1, 55, 0
2, 57856, Note_on_c, 1, 67, 102
2, 57856, Note_off_c, 1, 51, 0
2, 58112, Note_off_c, 1, 67, 0
2, 58112, Note_on_c, 1, 66, 102
2, 58368, Note_off_c, 1, 66, 0
2, 58368, Note_on_c, 1, 67, 102
2, 58880, Note_off_c, 1, 67, 0
2, 58880, Note_on_c, 1, 60, 102
2, 59392, Note_off_c, 1, 60, 0
2, 59392, Note_on_c, 1, 63, 102
2, 59904, Note_off_c, 1, 63, 0
2, 59904, Note_on_c, 1, 67, 102
2, 59904, Note_on_c, 1, 48, 102
2, 60160, Note_off_c, 1, 67, 0
2, 60160, Note_on_c, 1, 66, 102
2, 60416, Note_off_c, 1, 66, 0
2, 60416, Note_on_c, 1, 67, 102
2, 60416, Note_off_c, 1, 48, 0
2, 60416, Note_on_c, 1, 46, 102
2, 60928, Note_off_c, 1, 67, 0
2, 60928, Note_on_c, 1, 69, 102
2, 60928, Note_off_c, 1, 46, 0
2, 60928, Note_on_c, 1, 45, 102
2, 61440, Note_off_c, 1, 69, 0
2, 61440, Note_off_c, 1, 45, 0
2, 61440, Note_on_c, 1, 62, 102
2, 61952, Note_off_c, 1, 62, 0
2, 61952, Note_on_c, 1, 67, 102
2, 61952, Note_on_c, 1, 51, 102
2, 62208, Note_off_c, 1, 67, 0
2, 62208, Note_on_c, 1, 66, 102
2, 62464, Note_off_c, 1, 66, 0
2, 62464, Note_on_c, 1, 67, 102
2, 62464, Note_off_c, 1, 51, 0
2, 62464, Note_on_c, 1, 50, 102
2, 62976, Note_off_c, 1, 67, 0
2, 62976, Note_on_c, 1, 69, 102
2, 62976, Note_off_c, 1, 50, 0
2, 62976, Note_on_c, 1, 48, 102
2, 63488, Note_off_c, 1, 69, 0
2, 63488, Note_on_c, 1, 60, 102
2, 63488, Note_off_c, 1, 48, 0
2, 63488, Note_on_c, 1, 50, 102
2, 63744, Note_off_c, 1, 60, 0
2, 63744, Note_on_c, 1, 62, 102
2, 64000, Note_off_c, 1, 62, 0
2, 64000, Note_on_c, 1, 63, 102
2, 64000, Note_off_c, 1, 50, 0
2, 64000, Note_on_c, 1, 48, 102
2, 64256, Note_off_c, 1, 48, 0
2, 64256, Note_on_c, 1, 46, 102
2, 64512, Note_off_c, 1, 46, 0
2, 64512, Note_on_c, 1, 48, 102
2, 65024, Note_off_c, 1, 63, 0
2, 65024, Note_on_c, 1, 62, 102
2, 65024, Note_off_c, 1, 48, 0
2, 65024, Note_on_c, 1, 50, 102
2, 65280, Note_off_c, 1, 62, 0
2, 65280, Note_on_c, 1, 60, 102
2, 65536, Note_off_c, 1, 60, 0
2, 65536, Note_off_c, 1, 50, 0
2, 65536, Note_on_c, 1, 58, 112
2, 65536, Note_on_c, 1, 43, 112
2, 66048, Note_off_c, 1, 58, 0
2, 66048, Note_off_c, 1, 43, 0
2, 66048, Note_on_c, 1, 58, 112
2, 66304, Note_off_c, 1, 58, 0
2, 66304, Note_on_c, 1, 57, 112
2, 66560, Note_off_c, 1, 57, 0
2, 66560, Note_on_c, 1, 58, 112
2, 66816, Note_on_c, 1, 62, 112
2, 67072, Note_off_c, 1, 62, 0
2, 67072, Note_on_c, 1, 64, 112
2, 67072, Note_off_c, 1, 58, 0
2, 67072, Note_on_c, 1, 50, 112
2, 67328, Note_off_c, 1, 64, 0
2, 67328, Note_on_c, 1, 66, 112
2, 67584, Note_off_c, 1, 66, 0
2, 67584, Note_on_c, 1, 67, 112
2, 67584, Note_off_c, 1, 50, 0
2, 67584, Note_on_c, 1, 51, 112
2, 67840, Note_off_c, 1, 67, 0
2, 67840, Note_on_c, 1, 69, 112
2, 68096, Note_off_c, 1, 69, 0
2, 68096, Note_on_c, 1, 70, 112
2, 68096, Note_off_c, 1, 51, 0
2, 68096, Note_on_c, 1, 60, 112
2, 68352, Note_off_c, 1, 60, 0
2, 68352, Note_on_c, 1, 58, 112
2, 68608, Note_off_c, 1, 58, 0
2, 68608, Note_on_c, 1, 60, 112
2, 68864, Note_off_c, 1, 70, 0
2, 68864, Note_on_c, 1, 64, 112
2, 69120, Note_off_c, 1, 64, 0
2, 69120, Note_on_c, 1, 65, 112
2, 69120, Note_off_c, 1, 60, 0
2, 69120, Note_on_c, 1, 52, 112
2, 69376, Note_off_c, 1, 65, 0
2, 69376, Note_on_c, 1, 67, 112
2, 69632, Note_off_c, 1, 67, 0
2, 69632, Note_off_c, 1, 52, 0
2, 69632, Note_on_c, 1, 69, 112
2, 69632, Note_on_c, 1, 53, 112
2, 69888, Note_off_c, 1, 69, 0
2, 69888, Note_on_c, 1, 70, 112
2, 70144, Note_off_c, 1, 70, 0
2, 70144, Note_on_c, 1, 72, 112
2, 70144, Note_off_c, 1, 53, 0
2, 70144, Note_on_c, 1, 62, 112
2, 70400, Note_off_c, 1, 62, 0
2, 70400, Note_on_c, 1, 60, 112
2, 70656, Note_off_c, 1, 60, 0
2, 70656, Note_on_c, 1, 62, 112
2, 70912, Note_off_c, 1, 72, 0
2, 70912, Note_on_c, 1, 66, 112
2, 71168, Note_off_c, 1, 66, 0
2, 71168, Note_on_c, 1, 67, 112
2, 71168, Note_off_c, 1, 62, 0
2, 71168, Note_on_c, 1, 54, 112
2, 71424, Note_off_c, 1, 67, 0
2, 71424, Note_on_c, 1, 69, 112
2, 71680, Note_off_c, 1, 69, 0
2, 71680, Note_on_c, 1, 70, 112
2, 71680, Note_off_c, 1, 54, 0
2, 71680, Note_on_c, 1, 55, 112
2, 72192, Note_off_c, 1, 70, 0
2, 72192, Note_on_c, 1, 63, 112
2, 72448, Note_off_c, 1, 63, 0
2, 72448, Note_on_c, 1, 62, 112
2, 72704, Note_off_c, 1, 62, 0
2, 72704, Note_on_c, 1, 63, 112
2, 72704, Note_off_c, 1, 55, 0
2, 72960, Note_on_c, 1, 43, 112
2, 73216, Note_off_c, 1, 63, 0
2, 73216, Note_on_c, 1, 55, 112
2, 73216, Note_off_c, 1, 43, 0
2, 73216, Note_on_c, 1, 45, 112
2, 73472, Note_off_c, 1, 45, 0
2, 73472, Note_on_c, 1, 47, 112
2, 73728, Note_off_c, 1, 55, 0
2, 73728, Note_off_c, 1, 47, 0
2, 73728, Note_on_c, 1, 48, 112
2, 73984, Note_off_c, 1, 48, 0
2, 73984, Note_on_c, 1, 50, 112
2, 74240, Note_off_c, 1, 50, 0
2, 74240, Note_on_c, 1, 51, 112
2, 75008, Note_off_c, 1, 51, 0
2, 75008, Note_on_c, 1, 45, 112
2, 75264, Note_off_c, 1, 45, 0
2, 75264, Note_on_c, 1, 46, 112
2, 75520, Note_off_c, 1, 46, 0
2, 75520, Note_on_c, 1, 48, 112
2, 75776, Note_off_c, 1, 48, 0
2, 75776, Note_on_c, 1, 50, 112
2, 76032, Note_off_c, 1, 50, 0
2, 76032, Note_on_c, 1, 51, 112
2, 76288, Note_off_c, 1, 51, 0
2, 76288, Note_on_c, 1, 53, 112
2, 77056, Note_off_c, 1, 53, 0
2, 77056, Note_on_c, 1, 47, 112
2, 77312, Note_off_c, 1, 47, 0
2, 77312, Note_on_c, 1, 48, 112
2, 77568, Note_off_c, 1, 48, 0
2, 77568, Note_on_c, 1, 50, 112
2, 77824, Note_off_c, 1, 50, 0
2, 77824, Note_on_c, 1, 51, 112
2, 78336, Note_off_c, 1, 51, 0
2, 79360, Note_on_c, 1, 52, 112
2, 79872, Note_off_c, 1, 52, 0
2, 79872, Note_on_c, 1, 53, 112
2, 80384, Note_off_c, 1, 53, 0
2, 80384, Note_on_c, 1, 41, 112
2, 80896, Note_off_c, 1, 41, 0
2, 80896, Note_on_c, 1, 39, 112
2, 81408, Note_off_c, 1, 39, 0
2, 81408, Note_on_c, 1, 38, 112
2, 81920, Note_off_c, 1, 38, 0
2, 82432, Note_on_c, 1, 44, 112
2, 82944, Note_off_c, 1, 44, 0
2, 82944, Note_on_c, 1, 43, 112
2, 83456, Note_off_c, 1, 43, 0
2, 83456, Note_on_c, 1, 41, 112
2, 83968, Note_off_c, 1, 41, 0
2, 83968, Note_on_c, 1, 43, 112
2, 84480, Note_off_c, 1, 43, 0
2, 84480, Note_on_c, 1, 41, 112
2, 84736, Note_off_c, 1, 41, 0
2, 84736, Note_on_c, 1, 39, 112
2, 84992, Note_off_c, 1, 39, 0
2, 84992, Note_on_c, 1, 41, 112
2, 85504, Note_off_c, 1, 41, 0
2, 85504, Note_on_c, 1, 43, 112
2, 86016, Note_off_c, 1, 43, 0
2, 86016, Note_on_c, 1, 48, 112
2, 86272, Note_off_c, 1, 48, 0
2, 86272, Note_on_c, 1, 50, 112
2, 86528, Note_off_c, 1, 50, 0
2, 86528, Note_on_c, 1, 51, 112
2, 86784, Note_off_c, 1, 51, 0
2, 86784, Note_on_c, 1, 50, 112
2, 87040, Note_off_c, 1, 50, 0
2, 87040, Note_on_c, 1, 48, 112
2, 87296, Note_off_c, 1, 48, 0
2, 87296, Note_on_c, 1, 46, 112
2, 87552, Note_off_c, 1, 46, 0
2, 87552, Note_on_c, 1, 44, 112
2, 87808, Note_off_c, 1, 44, 0
2, 87808, Note_on_c, 1, 43, 112
2, 88064, Note_off_c, 1, 43, 0
2, 88064, Note_on_c, 1, 41, 112
2, 88320, Note_off_c, 1, 41, 0
2, 88320, Note_on_c, 1, 58, 112
2, 88576, Note_off_c, 1, 58, 0
2, 88576, Note_on_c, 1, 56, 112
2, 88832, Note_off_c, 1, 56, 0
2, 88832, Note_on_c, 1, 55, 112
2, 89088, Note_off_c, 1, 55, 0
2, 89088, Note_on_c, 1, 53, 112
2, 89344, Note_off_c, 1, 53, 0
2, 89344, Note_on_c, 1, 51, 112
2, 89600, Note_off_c, 1, 51, 0
2, 89600, Note_on_c, 1, 50, 112
2, 89856, Note_off_c, 1, 50, 0
2, 89856, Note_on_c, 1, 48, 112
2, 90112, Note_off_c, 1, 48, 0
2, 90112, Note_on_c, 1, 46, 112
2, 90368, Note_off_c, 1, 46, 0
2, 90368, Note_on_c, 1, 48, 112
2, 90624, Note_off_c, 1, 48, 0
2, 90624, Note_on_c, 1, 50, 112
2, 90880, Note_off_c, 1, 50, 0
2, 90880, Note_on_c, 1, 48, 112
2, 91136, Note_off_c, 1, 48, 0
2, 91136, Note_on_c, 1, 46, 112
2, 91392, Note_off_c, 1, 46, 0
2, 91392, Note_on_c, 1, 44, 112
2, 91648, Note_off_c, 1, 44, 0
2, 91648, Note_on_c, 1, 43, 112
2, 91904, Note_off_c, 1, 43, 0
2, 91904, Note_on_c, 1, 41, 112
2, 92160, Note_off_c, 1, 41, 0
2, 92160, Note_on_c, 1, 39, 112
2, 92416, Note_off_c, 1, 39, 0
2, 92416, Note_on_c, 1, 56, 112
2, 92672, Note_off_c, 1, 56, 0
2, 92672, Note_on_c, 1, 55, 112
2, 92928, Note_off_c, 1, 55, 0
2, 92928, Note_on_c, 1, 53, 112
2, 93184, Note_off_c, 1, 53, 0
2, 93184, Note_on_c, 1, 51, 112
2, 93440, Note_off_c, 1, 51, 0
2, 93440, Note_on_c, 1, 50, 112
2, 93696, Note_off_c, 1, 50, 0
2, 93696, Note_on_c, 1, 48, 112
2, 93952, Note_off_c, 1, 48, 0
2, 93952, Note_on_c, 1, 46, 112
2, 94208, Note_off_c, 1, 46, 0
2, 94208, Note_on_c, 1, 44, 112
2, 94464, Note_off_c, 1, 44, 0
2, 94464, Note_on_c, 1, 46, 112
2, 94720, Note_off_c, 1, 46, 0
2, 94720, Note_on_c, 1, 48, 112
2, 94976, Note_off_c, 1, 48, 0
2, 94976, Note_on_c, 1, 46, 112
2, 95232, Note_off_c, 1, 46, 0
2, 95232, Note_on_c, 1, 44, 112
2, 95488, Note_off_c, 1, 44, 0
2, 95488, Note_on_c, 1, 43, 112
2, 95744, Note_off_c, 1, 43, 0
2, 95744, Note_on_c, 1, 41, 112
2, 96000, Note_off_c, 1, 41, 0
2, 96000, Note_on_c, 1, 39, 112
2, 96256, Note_off_c, 1, 39, 0
2, 96256, Note_on_c, 1, 38, 112
2, 96512, Note_off_c, 1, 38, 0
2, 96512, Note_on_c, 1, 55, 112
2, 96768, Note_off_c, 1, 55, 0
2, 96768, Note_on_c, 1, 53, 112
2, 97024, Note_off_c, 1, 53, 0
2, 97024, Note_on_c, 1, 51, 112
2, 97280, Note_off_c, 1, 51, 0
2, 97280, Note_on_c, 1, 50, 112
2, 97536, Note_off_c, 1, 50, 0
2, 97536, Note_on_c, 1, 48, 112
2, 97792, Note_off_c, 1, 48, 0
2, 97792, Note_on_c, 1, 47, 112
2, 98048, Note_off_c, 1, 47, 0
2, 98048, Note_on_c, 1, 45, 112
2, 98304, Note_off_c, 1, 45, 0
2, 98304, Note_on_c, 1, 59, 112
2, 98304, Note_on_c, 1, 43, 112
2, 98816, Note_off_c, 1, 59, 0
2, 99328, Note_off_c, 1, 43, 0
2, 99840, Note_on_c, 1, 59, 112
2, 100352, Note_off_c, 1, 59, 0
2, 100352, Note_on_c, 1, 60, 112
2, 100608, Note_on_c, 1, 43, 112
2, 100864, Note_off_c, 1, 60, 0
2, 100864, Note_off_c, 1, 43, 0
2, 100864, Note_on_c, 1, 45, 112
2, 101120, Note_off_c, 1, 45, 0
2, 101120, Note_on_c, 1, 47, 112
2, 101376, Note_off_c, 1, 47, 0
2, 101376, Note_on_c, 1, 48, 112
2, 101632, Note_off_c, 1, 48, 0
2, 101632, Note_on_c, 1, 50, 112
2, 101888, Note_on_c, 1, 63, 112
2, 101888, Note_off_c, 1, 50, 0
2, 101888, Note_on_c, 1, 51, 112
2, 102144, Note_off_c, 1, 51, 0
2, 102144, Note_on_c, 1, 53, 112
2, 102400, Note_off_c, 1, 63, 0
2, 102400, Note_off_c, 1, 53, 0
2, 102400, Note_on_c, 1, 62, 112
2, 102400, Note_on_c, 1, 55, 112
2, 102656, Note_off_c, 1, 55, 0
2, 102656, Note_on_c, 1, 53, 112
2, 102912, Note_off_c, 1, 62, 0
2, 102912, Note_off_c, 1, 53, 0
2, 102912, Note_on_c, 1, 56, 112
2, 103168, Note_off_c, 1, 56, 0
2, 103168, Note_on_c, 1, 55, 112
2, 103424, Note_off_c, 1, 55, 0
2, 103424, Note_on_c, 1, 53, 112
2, 103680, Note_off_c, 1, 53, 0
2, 103680, Note_on_c, 1, 51, 112
2, 103936, Note_on_c, 1, 65, 112
2, 103936, Note_off_c, 1, 51, 0
2, 103936, Note_on_c, 1, 50, 112
2, 104192, Note_off_c, 1, 50, 0
2, 104192, Note_on_c, 1, 48, 112
2, 104448, Note_off_c, 1, 48, 0
2, 104448, Note_on_c, 1, 47, 112
2, 104960, Note_off_c, 1, 65, 0
2, 104960, Note_off_c, 1, 47, 0
2, 104960, Note_on_c, 1, 48, 112
2, 105216, Note_off_c, 1, 48, 0
2, 105216, Note_on_c, 1, 47, 112
2, 105472, Note_off_c, 1, 47, 0
2, 105472, Note_on_c, 1, 48, 112
2, 105984, Note_on_c, 1, 65, 112
2, 105984, Note_off_c, 1, 48, 0
2, 105984, Note_on_c, 1, 43, 112
2, 106496, Note_off_c, 1, 65, 0
2, 106496, Note_off_c, 1, 43, 0
2, 106496, Note_on_c, 1, 44, 112
2, 107008, Note_off_c, 1, 44, 0
2, 107008, Note_on_c, 1, 48, 112
2, 107264, Note_off_c, 1, 48, 0
2, 107264, Note_on_c, 1, 47, 112
2, 107520, Note_off_c, 1, 47, 0
2, 107520, Note_on_c, 1, 48, 112
2, 108032, Note_off_c, 1, 48, 0
2, 108032, Note_on_c, 1, 50, 112
2, 108544, Note_off_c, 1, 50, 0
2, 108544, Note_on_c, 1, 43, 112
2, 109056, Note_off_c, 1, 43, 0
2, 109056, Note_on_c, 1, 48, 112
2, 109312, Note_off_c, 1, 48, 0
2, 109312, Note_on_c, 1, 47, 112
2, 109568, Note_off_c, 1, 47, 0
2, 109568, Note_on_c, 1, 48, 112
2, 110080, Note_off_c, 1, 48, 0
2, 110080, Note_on_c, 1, 50, 112
2, 110592, Note_off_c, 1, 50, 0
2, 110592, Note_on_c, 1, 41, 112
2, 110848, Note_off_c, 1, 41, 0
2, 110848, Note_on_c, 1, 43, 112
2, 111104, Note_off_c, 1, 43, 0
2, 111104, Note_on_c, 1, 44, 112
2, 112128, Note_off_c, 1, 44, 0
2, 112128, Note_on_c, 1, 43, 112
2, 112384, Note_off_c, 1, 43, 0
2, 112384, Note_on_c, 1, 41, 112
2, 112640, Note_off_c, 1, 41, 0
2, 112640, Note_on_c, 1, 39, 112
2, 113664, Note_off_c, 1, 39, 0
2, 114176, Note_on_c, 1, 48, 112
2, 114688, Note_off_c, 1, 48, 0
2, 114688, Note_on_c, 1, 50, 112
2, 115200, Note_off_c, 1, 50, 0
2, 115200, Note_on_c, 1, 48, 112
2, 115712, Note_off_c, 1, 48, 0
2, 115712, Note_on_c, 1, 55, 112
2, 116224, Note_off_c, 1, 55, 0
2, 116224, Note_on_c, 1, 43, 112
2, 116736, Note_on_c, 1, 60, 112
2, 116736, Note_off_c, 1, 43, 0
2, 116736, Note_on_c, 1, 36, 112
2, 116736, Note_on_c, 1, 48, 112
2, 117760, Note_off_c, 1, 60, 0
2, 118272, Note_on_c, 1, 64, 112
2, 118784, Note_off_c, 1, 64, 0
2, 118784, Note_off_c, 1, 36, 0
2, 118784, Note_off_c, 1, 48, 0
2, 118784, Note_on_c, 1, 65, 112
2, 118784, Note_on_c, 1, 48, 112
2, 119808, Note_off_c, 1, 65, 0
2, 120320, Note_on_c, 1, 65, 112
2, 120320, Note_on_c, 1, 68, 112
2, 120832, Note_off_c, 1, 65, 0
2, 120832, Note_off_c, 1, 68, 0
2, 120832, Note_on_c, 1, 65, 112
2, 121344, Note_off_c, 1, 65, 0
2, 121344, Note_on_c, 1, 63, 110
2, 121600, Note_off_c, 1, 63, 0
2, 121600, Note_on_c, 1, 62, 110
2, 121856, Note_off_c, 1, 62, 0
2, 121856, Note_on_c, 1, 63, 108
2, 122368, Note_off_c, 1, 63, 0
2, 122368, Note_on_c, 1, 65, 106
2, 122880, Note_off_c, 1, 65, 0
2, 122880, Note_off_c, 1, 48, 0
2, 122880, Note_on_c, 1, 59, 102
2, 122880, Note_on_c, 1, 62, 102
2, 122880, Note_on_c, 1, 36, 102
2, 122880, Note_on_c, 1, 48, 102
2, 123904, Note_off_c, 1, 59, 0
2, 123904, Note_off_c, 1, 62, 0
2, 123904, Note_on_c, 1, 59, 102
2, 123904, Note_on_c, 1, 62, 102
2, 124928, Note_off_c, 1, 59, 0
2, 124928, Note_off_c, 1, 62, 0
2, 124928, Note_off_c, 1, 36, 0
2, 124928, Note_off_c, 1, 48, 0
2, 124928, Note_on_c, 1, 48, 90
2, 124928, Note_on_c, 1, 55, 90
2, 129024, Note_off_c, 1, 48, 0
2, 129024, Note_off_c, 1, 55, 0
2, 129024, End_track
3, 0, Start_track
3, 0, Title_t, "Guitar 1"
3, 0, Program_c, 0, 24
3, 0, Control_c, 0, 10, 90
3, 0, Control_c, 0, 7, 120
3, 8704, Note_on_c, 0, 67, 112
3, 8960, Note_off_c, 0, 67, 0
3, 8960, Note_on_c, 0, 66, 112
3, 9216, Note_off_c, 0, 66, 0
3, 9216, Note_on_c, 0, 67, 112
3, 9728, Note_off_c, 0, 67, 0
3, 9728, Note_on_c, 0, 60, 112
3, 10240, Note_off_c, 0, 60, 0
3, 10240, Note_on_c, 0, 63, 112
3, 10752, Note_off_c, 0, 63, 0
3, 10752, Note_on_c, 0, 67, 112
3, 11008, Note_off_c, 0, 67, 0
3, 11008, Note_on_c, 0, 66, 112
3, 11264, Note_off_c, 0, 66, 0
3, 11264, Note_on_c, 0, 67, 112
3, 11776, Note_off_c, 0, 67, 0
3, 11776, Note_on_c, 0, 69, 112
3, 12288, Note_off_c, 0, 69, 0
3, 12288, Note_on_c, 0, 62, 112
3, 12800, Note_off_c, 0, 62, 0
3, 12800, Note_on_c, 0, 67, 112
3, 13056, Note_off_c, 0, 67, 0
3, 13056, Note_on_c, 0, 66, 112
3, 13312, Note_off_c, 0, 66, 0
3, 13312, Note_on_c, 0, 67, 112
3, 13824, Note_off_c, 0, 67, 0
3, 13824, Note_on_c, 0, 69, 112
3, 14336, Note_off_c, 0, 69, 0
3, 14336, Note_on_c, 0, 60, 112
3, 14592, Note_off_c, 0, 60, 0
3, 14592, Note_on_c, 0, 62, 112
3, 14848, Note_off_c, 0, 62, 0
3, 14848, Note_on_c, 0, 63, 112
3, 15872, Note_off_c, 0, 63, 0
3, 15872, Note_on_c, 0, 62, 112
3, 16128, Note_off_c, 0, 62, 0
3, 16128, Note_on_c, 0, 60, 112
3, 16384, Note_off_c, 0, 60, 0
3, 16384, Note_on_c, 0, 58, 112
3, 16896, Note_off_c, 0, 58, 0
3, 16896, Note_on_c, 0, 63, 112
3, 17152, Note_off_c, 0, 63, 0
3, 17152, Note_on_c, 0, 62, 112
3, 17408, Note_off_c, 0, 62, 0
3, 17408, Note_on_c, 0, 63, 112
3, 17920, Note_off_c, 0, 63, 0
3, 17920, Note_on_c, 0, 55, 112
3, 18432, Note_off_c, 0, 55, 0
3, 18432, Note_on_c, 0, 56, 112
3, 18944, Note_off_c, 0, 56, 0
3, 18944, Note_on_c, 0, 65, 112
3, 19200, Note_off_c, 0, 65, 0
3, 19200, Note_on_c, 0, 63, 112
3, 19456, Note_off_c, 0, 63, 0
3, 19456, Note_on_c, 0, 65, 112
3, 19968, Note_off_c, 0, 65, 0
3, 19968, Note_on_c, 0, 57, 112
3, 20480, Note_off_c, 0, 57, 0
3, 20480, Note_on_c, 0, 58, 112
3, 20992, Note_off_c, 0, 58, 0
3, 20992, Note_on_c, 0, 67, 112
3, 21248, Note_off_c, 0, 67, 0
3, 21248, Note_on_c, 0, 65, 112
3, 21504, Note_off_c, 0, 65, 0
3, 21504, Note_on_c, 0, 67, 112
3, 22016, Note_off_c, 0, 67, 0
3, 22016, Note_on_c, 0, 59, 112
3, 22528, Note_off_c, 0, 59, 0
3, 22528, Note_on_c, 0, 60, 112
3, 23040, Note_off_c, 0, 60, 0
3, 23040, Note_on_c, 0, 62, 112
3, 23296, Note_off_c, 0, 62, 0
3, 23296, Note_on_c, 0, 63, 112
3, 23552, Note_off_c, 0, 63, 0
3, 23552, Note_on_c, 0, 65, 112
3, 25088, Note_off_c, 0, 65, 0
3, 25088, Note_on_c, 0, 63, 102
3, 25344, Note_off_c, 0, 63, 0
3, 25344, Note_on_c, 0, 62, 102
3, 25600, Note_off_c, 0, 62, 0
3, 25600, Note_on_c, 0, 60, 102
3, 25856, Note_off_c, 0, 60, 0
3, 25856, Note_on_c, 0, 58, 102
3, 26112, Note_off_c, 0, 58, 0
3, 26112, Note_on_c, 0, 56, 102
3, 26368, Note_off_c, 0, 56, 0
3, 26368, Note_on_c, 0, 55, 102
3, 26624, Note_off_c, 0, 55, 0
3, 26624, Note_on_c, 0, 53, 102
3, 27136, Note_off_c, 0, 53, 0
3, 27136, Note_on_c, 0, 68, 102
3, 27648, Note_off_c, 0, 68, 0
3, 27648, Note_on_c, 0, 67, 102
3, 28160, Note_off_c, 0, 67, 0
3, 28160, Note_on_c, 0, 65, 102
3, 28672, Note_off_c, 0, 65, 0
3, 28672, Note_on_c, 0, 63, 102
3, 29184, Note_off_c, 0, 63, 0
3, 29184, Note_on_c, 0, 62, 102
3, 29696, Note_off_c, 0, 62, 0
3, 29696, Note_on_c, 0, 63, 102
3, 30208, Note_off_c, 0, 63, 0
3, 30208, Note_on_c, 0, 65, 102
3, 30720, Note_off_c, 0, 65, 0
3, 30720, Note_on_c, 0, 59, 102
3, 31232, Note_off_c, 0, 59, 0
3, 31232, Note_on_c, 0, 60, 102
3, 31744, Note_off_c, 0, 60, 0
3, 31744, Note_on_c, 0, 62, 102
3, 32256, Note_off_c, 0, 62, 0
3, 32256, Note_on_c, 0, 59, 102
3, 32768, Note_off_c, 0, 59, 0
3, 32768, Note_on_c, 0, 60, 102
3, 32768, Note_on_c, 0, 55, 102
3, 33280, Note_off_c, 0, 60, 0
3, 33280, Note_on_c, 0, 79, 102
3, 33536, Note_off_c, 0, 79, 0
3, 33536, Note_on_c, 0, 78, 102
3, 33792, Note_off_c, 0, 78, 0
3, 33792, Note_on_c, 0, 79, 102
3, 33792, Note_off_c, 0, 55, 0
3, 34304, Note_off_c, 0, 79, 0
3, 34304, Note_on_c, 0, 74, 102
3, 34304, Note_on_c, 0, 71, 102
3, 34816, Note_off_c, 0, 74, 0
3, 34816, Note_on_c, 0, 75, 102
3, 34816, Note_off_c, 0, 71, 0
3, 34816, Note_on_c, 0, 72, 102
3, 35328, Note_off_c, 0, 72, 0
3, 35328, Note_on_c, 0, 72, 102
3, 35584, Note_off_c, 0, 72, 0
3, 35584, Note_on_c, 0, 71, 102
3, 35840, Note_off_c, 0, 75, 0
3, 35840, Note_off_c, 0, 71, 0
3, 35840, Note_on_c, 0, 72, 102
3, 36352, Note_on_c, 0, 76, 102
3, 36352, Note_off_c, 0, 72, 0
3, 36352, Note_on_c, 0, 67, 102
3, 36864, Note_off_c, 0, 76, 0
3, 36864, Note_off_c, 0, 67, 0
3, 36864, Note_on_c, 0, 77, 102
3, 36864, Note_on_c, 0, 68, 102
3, 37376, Note_off_c, 0, 77, 0
3, 37376, Note_on_c, 0, 77, 102
3, 37632, Note_off_c, 0, 77, 0
3, 37632, Note_on_c, 0, 76, 102
3, 37888, Note_off_c, 0, 76, 0
3, 37888, Note_on_c, 0, 77, 102
3, 37888, Note_off_c, 0, 68, 0
3, 38400, Note_off_c, 0, 77, 0
3, 38400, Note_on_c, 0, 72, 102
3, 38400, Note_on_c, 0, 69, 102
3, 38912, Note_off_c, 0, 72, 0
3, 38912, Note_on_c, 0, 74, 102
3, 38912, Note_off_c, 0, 69, 0
3, 38912, Note_on_c, 0, 70, 102
3, 39424, Note_off_c, 0, 70, 0
3, 39424, Note_on_c, 0, 70, 102
3, 39680, Note_off_c, 0, 70, 0
3, 39680, Note_on_c, 0, 69, 102
3, 39936, Note_off_c, 0, 74, 0
3, 39936, Note_off_c, 0, 69, 0
3, 39936, Note_on_c, 0, 70, 102
3, 40448, Note_on_c, 0, 74, 102
3, 40448, Note_off_c, 0, 70, 0
3, 40448, Note_on_c, 0, 65, 102
3, 40960, Note_off_c, 0, 74, 0
3, 40960, Note_off_c, 0, 65, 0
3, 40960, Note_on_c, 0, 75, 102
3, 40960, Note_on_c, 0, 67, 102
3, 41472, Note_off_c, 0, 75, 0
3, 41472, Note_on_c, 0, 75, 102
3, 41728, Note_off_c, 0, 75, 0
3, 41728, Note_on_c, 0, 74, 102
3, 41984, Note_off_c, 0, 74, 0
3, 41984, Note_on_c, 0, 75, 102
3, 41984, Note_off_c, 0, 67, 0
3, 42496, Note_off_c, 0, 75, 0
3, 42496, Note_on_c, 0, 70, 102
3, 42496, Note_on_c, 0, 67, 102
3, 43008, Note_off_c, 0, 70, 0
3, 43008, Note_on_c, 0, 72, 102
3, 43008, Note_off_c, 0, 67, 0
3, 43008, Note_on_c, 0, 68, 102
3, 43520, Note_off_c, 0, 72, 0
3, 43520, Note_on_c, 0, 75, 102
3, 43520, Note_off_c, 0, 68, 0
3, 43520, Note_on_c, 0, 68, 102
3, 43776, Note_off_c, 0, 75, 0
3, 43776, Note_on_c, 0, 74, 102
3, 44032, Note_off_c, 0, 74, 0
3, 44032, Note_on_c, 0, 75, 102
3, 44032, Note_off_c, 0, 68, 0
3, 44032, Note_on_c, 0, 67, 102
3, 44544, Note_off_c, 0, 75, 0
3, 44544, Note_on_c, 0, 77, 102
3, 44544, Note_off_c, 0, 67, 0
3, 44544, Note_on_c, 0, 65, 102
3, 45056, Note_off_c, 0, 77, 0
3, 45056, Note_off_c, 0, 65, 0
3, 45056, Note_on_c, 0, 70, 102
3, 45568, Note_off_c, 0, 70, 0
3, 45568, Note_on_c, 0, 75, 102
3, 45824, Note_off_c, 0, 75, 0
3, 45824, Note_on_c, 0, 74, 102
3, 46080, Note_off_c, 0, 74, 0
3, 46080, Note_on_c, 0, 75, 102
3, 46592, Note_off_c, 0, 75, 0
3, 46592, Note_on_c, 0, 77, 102
3, 47104, Note_off_c, 0, 77, 0
3, 47104, Note_on_c, 0, 68, 102
3, 47360, Note_off_c, 0, 68, 0
3, 47360, Note_on_c, 0, 70, 102
3, 47616, Note_off_c, 0, 70, 0
3, 47616, Note_on_c, 0, 72, 102
3, 48640, Note_off_c, 0, 72, 0
3, 48640, Note_on_c, 0, 70, 102
3, 48896, Note_off_c, 0, 70, 0
3, 48896, Note_on_c, 0, 68, 102
3, 49152, Note_off_c, 0, 68, 0
3, 49152, Note_on_c, 0, 67, 102
3, 49408, Note_off_c, 0, 67, 0
3, 49408, Note_on_c, 0, 63, 102
3, 49664, Note_off_c, 0, 63, 0
3, 49664, Note_on_c, 0, 65, 100
3, 49920, Note_off_c, 0, 65, 0
3, 49920, Note_on_c, 0, 67, 100
3, 50176, Note_off_c, 0, 67, 0
3, 50176, Note_on_c, 0, 68, 98
3, 50432, Note_off_c, 0, 68, 0
3, 50432, Note_on_c, 0, 70, 98
3, 50688, Note_off_c, 0, 70, 0
3, 50688, Note_on_c, 0, 72, 96
3, 50944, Note_off_c, 0, 72, 0
3, 50944, Note_on_c, 0, 74, 96
3, 51200, Note_off_c, 0, 74, 0
3, 51200, Note_on_c, 0, 75, 92
3, 51456, Note_off_c, 0, 75, 0
3, 51456, Note_on_c, 0, 74, 92
3, 51712, Note_off_c, 0, 74, 0
3, 51712, Note_on_c, 0, 72, 92
3, 51968, Note_off_c, 0, 72, 0
3, 51968, Note_on_c, 0, 74, 92
3, 52224, Note_off_c, 0, 74, 0
3, 52224, Note_on_c, 0, 75, 92
3, 52480, Note_off_c, 0, 75, 0
3, 52480, Note_on_c, 0, 77, 92
3, 52736, Note_off_c, 0, 77, 0
3, 52736, Note_on_c, 0, 79, 92
3, 52992, Note_off_c, 0, 79, 0
3, 52992, Note_on_c, 0, 81, 92
3, 53248, Note_off_c, 0, 81, 0
3, 53248, Note_on_c, 0, 82, 92
3, 53427, Note_off_c, 0, 82, 0
3, 53504, Note_on_c, 0, 65, 92
3, 53760, Note_off_c, 0, 65, 0
3, 53760, Note_on_c, 0, 67, 90
3, 54016, Note_off_c, 0, 67, 0
3, 54016, Note_on_c, 0, 68, 90
3, 54272, Note_off_c, 0, 68, 0
3, 54272, Note_on_c, 0, 70, 88
3, 54528, Note_off_c, 0, 70, 0
3, 54528, Note_on_c, 0, 72, 88
3, 54784, Note_off_c, 0, 72, 0
3, 54784, Note_on_c, 0, 74, 86
3, 55040, Note_off_c, 0, 74, 0
3, 55040, Note_on_c, 0, 76, 86
3, 55296, Note_off_c, 0, 76, 0
3, 55296, Note_on_c, 0, 77, 82
3, 55552, Note_off_c, 0, 77, 0
3, 55552, Note_on_c, 0, 75, 82
3, 55808, Note_off_c, 0, 75, 0
3, 55808, Note_on_c, 0, 74, 82
3, 56064, Note_off_c, 0, 74, 0
3, 56064, Note_on_c, 0, 75, 82
3, 56320, Note_off_c, 0, 75, 0
3, 56320, Note_on_c, 0, 77, 82
3, 56576, Note_off_c, 0, 77, 0
3, 56576, Note_on_c, 0, 79, 82
3, 56832, Note_off_c, 0, 79, 0
3, 56832, Note_on_c, 0, 81, 82
3, 57088, Note_off_c, 0, 81, 0
3, 57088, Note_on_c, 0, 83, 82
3, 57344, Note_off_c, 0, 83, 0
3, 57344, Note_on_c, 0, 84, 90
3, 57702, Note_off_c, 0, 84, 0
3, 57856, Note_on_c, 0, 83, 90
3, 58112, Note_off_c, 0, 83, 0
3, 58112, Note_on_c, 0, 81, 90
3, 58368, Note_off_c, 0, 81, 0
3, 58368, Note_on_c, 0, 79, 90
3, 58624, Note_off_c, 0, 79, 0
3, 58624, Note_on_c, 0, 77, 90
3, 58880, Note_off_c, 0, 77, 0
3, 58880, Note_on_c, 0, 75, 90
3, 59136, Note_off_c, 0, 75, 0
3, 59136, Note_on_c, 0, 74, 90
3, 59392, Note_off_c, 0, 74, 0
3, 59392, Note_on_c, 0, 72, 102
3, 59904, Note_off_c, 0, 72, 0
3, 59904, Note_on_c, 0, 75, 102
3, 60416, Note_off_c, 0, 75, 0
3, 60416, Note_on_c, 0, 74, 102
3, 60928, Note_off_c, 0, 74, 0
3, 60928, Note_on_c, 0, 72, 102
3, 61440, Note_off_c, 0, 72, 0
3, 61440, Note_on_c, 0, 70, 102
3, 61952, Note_off_c, 0, 70, 0
3, 61952, Note_on_c, 0, 69, 102
3, 62464, Note_off_c, 0, 69, 0
3, 62464, Note_on_c, 0, 70, 102
3, 62976, Note_off_c, 0, 70, 0
3, 62976, Note_on_c, 0, 72, 102
3, 63488, Note_off_c, 0, 72, 0
3, 63488, Note_on_c, 0, 66, 102
3, 64000, Note_off_c, 0, 66, 0
3, 64000, Note_on_c, 0, 67, 102
3, 64512, Note_off_c, 0, 67, 0
3, 64512, Note_on_c, 0, 69, 102
3, 65024, Note_off_c, 0, 69, 0
3, 65024, Note_on_c, 0, 66, 102
3, 65536, Note_off_c, 0, 66, 0
3, 65536, Note_on_c, 0, 67, 102
3, 66048, Note_off_c, 0, 67, 0
3, 66048, Note_on_c, 0, 74, 102
3, 66304, Note_off_c, 0, 74, 0
3, 66304, Note_on_c, 0, 72, 102
3, 66560, Note_off_c, 0, 72, 0
3, 66560, Note_on_c, 0, 74, 102
3, 67072, Note_off_c, 0, 74, 0
3, 68096, Note_on_c, 0, 76, 102
3, 68352, Note_off_c, 0, 76, 0
3, 68352, Note_on_c, 0, 74, 102
3, 68608, Note_off_c, 0, 74, 0
3, 68608, Note_on_c, 0, 76, 102
3, 69120, Note_off_c, 0, 76, 0
3, 70144, Note_on_c, 0, 78, 102
3, 70400, Note_off_c, 0, 78, 0
3, 70400, Note_on_c, 0, 76, 102
3, 70656, Note_off_c, 0, 76, 0
3, 70656, Note_on_c, 0, 78, 102
3, 71168, Note_off_c, 0, 78, 0
3, 72192, Note_on_c, 0, 67, 102
3, 72448, Note_off_c, 0, 67, 0
3, 72448, Note_on_c, 0, 65, 102
3, 72704, Note_off_c, 0, 65, 0
3, 72704, Note_on_c, 0, 67, 102
3, 73216, Note_off_c, 0, 67, 0
3, 73728, Note_on_c, 0, 56, 102
3, 74240, Note_on_c, 0, 69, 102
3, 74240, Note_off_c, 0, 56, 0
3, 74240, Note_on_c, 0, 65, 102
3, 74496, Note_off_c, 0, 69, 0
3, 74496, Note_on_c, 0, 67, 102
3, 74496, Note_off_c, 0, 65, 0
3, 74496, Note_on_c, 0, 63, 102
3, 74752, Note_off_c, 0, 67, 0
3, 74752, Note_on_c, 0, 69, 102
3, 74752, Note_off_c, 0, 63, 0
3, 74752, Note_on_c, 0, 65, 102
3, 75264, Note_off_c, 0, 69, 0
3, 75264, Note_off_c, 0, 65, 0
3, 75264, Note_on_c, 0, 57, 102
3, 75776, Note_off_c, 0, 57, 0
3, 75776, Note_on_c, 0, 58, 102
3, 76288, Note_on_c, 0, 71, 102
3, 76288, Note_off_c, 0, 58, 0
3, 76288, Note_on_c, 0, 67, 102
3, 76544, Note_off_c, 0, 71, 0
3, 76544, Note_on_c, 0, 69, 102
3, 76544, Note_off_c, 0, 67, 0
3, 76544, Note_on_c, 0, 65, 102
3, 76800, Note_off_c, 0, 69, 0
3, 76800, Note_on_c, 0, 71, 102
3, 76800, Note_off_c, 0, 65, 0
3, 76800, Note_on_c, 0, 67, 102
3, 77312, Note_off_c, 0, 71, 0
3, 77312, Note_off_c, 0, 67, 0
3, 77312, Note_on_c, 0, 59, 102
3, 77824, Note_off_c, 0, 59, 0
3, 77824, Note_on_c, 0, 60, 102
3, 78080, Note_off_c, 0, 60, 0
3, 78080, Note_on_c, 0, 65, 102
3, 78336, Note_on_c, 0, 72, 102
3, 78336, Note_off_c, 0, 65, 0
3, 78336, Note_on_c, 0, 63, 102
3, 78592, Note_off_c, 0, 72, 0
3, 78592, Note_on_c, 0, 71, 102
3, 78592, Note_off_c, 0, 63, 0
3, 78592, Note_on_c, 0, 62, 102
3, 78848, Note_off_c, 0, 71, 0
3, 78848, Note_on_c, 0, 72, 102
3, 78848, Note_off_c, 0, 62, 0
3, 78848, Note_on_c, 0, 60, 102
3, 79104, Note_off_c, 0, 60, 0
3, 79104, Note_on_c, 0, 58, 102
3, 79360, Note_off_c, 0, 72, 0
3, 79360, Note_on_c, 0, 67, 102
3, 79360, Note_off_c, 0, 58, 0
3, 79360, Note_on_c, 0, 56, 102
3, 79616, Note_off_c, 0, 56, 0
3, 79616, Note_on_c, 0, 55, 102
3, 79872, Note_off_c, 0, 67, 0
3, 79872, Note_on_c, 0, 68, 102
3, 79872, Note_off_c, 0, 55, 0
3, 79872, Note_on_c, 0, 53, 102
3, 80384, Note_off_c, 0, 68, 0
3, 80384, Note_on_c, 0, 72, 102
3, 80384, Note_off_c, 0, 53, 0
3, 80384, Note_on_c, 0, 68, 102
3, 80640, Note_off_c, 0, 72, 0
3, 80640, Note_on_c, 0, 71, 102
3, 80896, Note_off_c, 0, 71, 0
3, 80896, Note_on_c, 0, 72, 102
3, 80896, Note_off_c, 0, 68, 0
3, 80896, Note_on_c, 0, 67, 102
3, 81408, Note_off_c, 0, 72, 0
3, 81408, Note_on_c, 0, 74, 102
3, 81408, Note_off_c, 0, 67, 0
3, 81408, Note_on_c, 0, 65, 102
3, 81920, Note_off_c, 0, 74, 0
3, 81920, Note_off_c, 0, 65, 0
3, 81920, Note_on_c, 0, 67, 102
3, 81920, Note_on_c, 0, 63, 102
3, 82432, Note_off_c, 0, 67, 0
3, 82432, Note_on_c, 0, 72, 102
3, 82432, Note_off_c, 0, 63, 0
3, 82432, Note_on_c, 0, 62, 102
3, 82688, Note_off_c, 0, 72, 0
3, 82688, Note_on_c, 0, 71, 102
3, 82944, Note_off_c, 0, 71, 0
3, 82944, Note_on_c, 0, 72, 102
3, 82944, Note_off_c, 0, 62, 0
3, 82944, Note_on_c, 0, 63, 102
3, 83456, Note_off_c, 0, 72, 0
3, 83456, Note_on_c, 0, 74, 102
3, 83456, Note_off_c, 0, 63, 0
3, 83456, Note_on_c, 0, 65, 102
3, 83917, Note_off_c, 0, 65, 0
3, 83968, Note_off_c, 0, 74, 0
3, 83968, Note_on_c, 0, 65, 102
3, 83968, Note_on_c, 0, 59, 102
3, 84224, Note_off_c, 0, 65, 0
3, 84224, Note_on_c, 0, 67, 102
3, 84480, Note_off_c, 0, 67, 0
3, 84480, Note_on_c, 0, 68, 102
3, 84480, Note_off_c, 0, 59, 0
3, 84480, Note_on_c, 0, 60, 102
3, 84992, Note_off_c, 0, 60, 0
3, 84992, Note_on_c, 0, 62, 102
3, 85504, Note_off_c, 0, 68, 0
3, 85504, Note_on_c, 0, 67, 102
3, 85504, Note_off_c, 0, 62, 0
3, 85504, Note_on_c, 0, 59, 102
3, 85760, Note_off_c, 0, 67, 0
3, 85760, Note_on_c, 0, 65, 102
3, 86016, Note_off_c, 0, 65, 0
3, 86016, Note_off_c, 0, 59, 0
3, 86016, Note_on_c, 0, 63, 102
3, 86016, Note_on_c, 0, 60, 102
3, 86528, Note_off_c, 0, 63, 0
3, 86528, Note_on_c, 0, 72, 102
3, 86784, Note_off_c, 0, 72, 0
3, 86784, Note_on_c, 0, 71, 102
3, 87040, Note_off_c, 0, 71, 0
3, 87040, Note_on_c, 0, 72, 102
3, 87040, Note_off_c, 0, 60, 0
3, 87552, Note_off_c, 0, 72, 0
3, 87552, Note_on_c, 0, 67, 102
3, 87552, Note_on_c, 0, 64, 102
3, 88064, Note_off_c, 0, 67, 0
3, 88064, Note_on_c, 0, 68, 102
3, 88064, Note_off_c, 0, 64, 0
3, 88064, Note_on_c, 0, 65, 102
3, 88422, Note_off_c, 0, 65, 0
3, 88576, Note_on_c, 0, 65, 102
3, 88781, Note_off_c, 0, 68, 0
3, 88832, Note_off_c, 0, 65, 0
3, 88832, Note_on_c, 0, 64, 102
3, 89088, Note_off_c, 0, 64, 0
3, 89088, Note_on_c, 0, 65, 102
3, 89600, Note_on_c, 0, 69, 102
3, 89600, Note_off_c, 0, 65, 0
3, 89600, Note_on_c, 0, 60, 102
3, 90112, Note_off_c, 0, 69, 0
3, 90112, Note_off_c, 0, 60, 0
3, 90112, Note_on_c, 0, 70, 102
3, 90112, Note_on_c, 0, 62, 102
3, 90624, Note_off_c, 0, 70, 0
3, 90624, Note_on_c, 0, 70, 102
3, 90880, Note_off_c, 0, 70, 0
3, 90880, Note_on_c, 0, 69, 102
3, 91136, Note_off_c, 0, 69, 0
3, 91136, Note_on_c, 0, 70, 102
3, 91136, Note_off_c, 0, 62, 0
3, 91648, Note_off_c, 0, 70, 0
3, 91648, Note_on_c, 0, 65, 102
3, 91648, Note_on_c, 0, 62, 102
3, 92160, Note_off_c, 0, 65, 0
3, 92160, Note_on_c, 0, 67, 102
3, 92160, Note_off_c, 0, 62, 0
3, 92160, Note_on_c, 0, 63, 102
3, 92518, Note_off_c, 0, 63, 0
3, 92672, Note_on_c, 0, 63, 102
3, 92877, Note_off_c, 0, 67, 0
3, 92928, Note_off_c, 0, 63, 0
3, 92928, Note_on_c, 0, 62, 102
3, 93184, Note_off_c, 0, 62, 0
3, 93184, Note_on_c, 0, 63, 102
3, 93696, Note_on_c, 0, 67, 102
3, 93696, Note_off_c, 0, 63, 0
3, 93696, Note_on_c, 0, 58, 102
3, 94208, Note_off_c, 0, 58, 0
3, 94208, Note_on_c, 0, 60, 102
3, 94720, Note_off_c, 0, 67, 0
3, 94720, Note_on_c, 0, 68, 102
3, 94976, Note_off_c, 0, 68, 0
3, 94976, Note_on_c, 0, 70, 102
3, 95232, Note_off_c, 0, 70, 0
3, 95232, Note_on_c, 0, 72, 102
3, 95488, Note_off_c, 0, 72, 0
3, 95488, Note_on_c, 0, 71, 102
3, 95744, Note_off_c, 0, 71, 0
3, 95744, Note_on_c, 0, 72, 102
3, 96000, Note_off_c, 0, 72, 0
3, 96000, Note_on_c, 0, 68, 102
3, 96256, Note_off_c, 0, 68, 0
3, 96256, Note_on_c, 0, 65, 102
3, 96768, Note_off_c, 0, 60, 0
3, 96768, Note_on_c, 0, 62, 102
3, 97024, Note_off_c, 0, 62, 0
3, 97024, Note_on_c, 0, 63, 102
3, 97280, Note_off_c, 0, 63, 0
3, 97280, Note_on_c, 0, 65, 102
3, 97536, Note_off_c, 0, 65, 0
3, 97536, Note_on_c, 0, 63, 102
3, 97792, Note_off_c, 0, 63, 0
3, 97792, Note_on_c, 0, 65, 102
3, 98048, Note_off_c, 0, 65, 0
3, 98048, Note_on_c, 0, 62, 102
3, 98304, Note_off_c, 0, 65, 0
3, 98304, Note_off_c, 0, 62, 0
3, 98304, Note_on_c, 0, 59, 102
3, 98816, Note_on_c, 0, 74, 102
3, 98816, Note_off_c, 0, 59, 0
3, 99072, Note_off_c, 0, 74, 0
3, 99072, Note_on_c, 0, 72, 102
3, 99328, Note_off_c, 0, 72, 0
3, 99328, Note_on_c, 0, 74, 102
3, 99840, Note_off_c, 0, 74, 0
3, 99840, Note_on_c, 0, 65, 102
3, 100352, Note_off_c, 0, 65, 0
3, 100352, Note_on_c, 0, 63, 102
3, 100864, Note_off_c, 0, 63, 0
3, 100864, Note_on_c, 0, 75, 102
3, 101120, Note_off_c, 0, 75, 0
3, 101120, Note_on_c, 0, 74, 102
3, 101376, Note_off_c, 0, 74, 0
3, 101376, Note_on_c, 0, 75, 102
3, 101888, Note_off_c, 0, 75, 0
3, 101888, Note_on_c, 0, 67, 102
3, 102400, Note_off_c, 0, 67, 0
3, 102400, Note_on_c, 0, 65, 102
3, 102912, Note_off_c, 0, 65, 0
3, 102912, Note_on_c, 0, 77, 102
3, 103168, Note_off_c, 0, 77, 0
3, 103168, Note_on_c, 0, 75, 102
3, 103424, Note_off_c, 0, 75, 0
3, 103424, Note_on_c, 0, 77, 102
3, 103936, Note_off_c, 0, 77, 0
3, 103936, Note_on_c, 0, 68, 102
3, 104448, Note_off_c, 0, 68, 0
3, 104448, Note_on_c, 0, 67, 102
3, 104704, Note_off_c, 0, 67, 0
3, 104704, Note_on_c, 0, 77, 102
3, 104960, Note_off_c, 0, 77, 0
3, 104960, Note_on_c, 0, 75, 102
3, 105216, Note_off_c, 0, 75, 0
3, 105216, Note_on_c, 0, 74, 102
3, 105472, Note_off_c, 0, 74, 0
3, 105472, Note_on_c, 0, 72, 102
3, 105728, Note_off_c, 0, 72, 0
3, 105728, Note_on_c, 0, 71, 102
3, 105984, Note_off_c, 0, 71, 0
3, 105984, Note_on_c, 0, 69, 102
3, 106240, Note_off_c, 0, 69, 0
3, 106240, Note_on_c, 0, 67, 102
3, 106496, Note_off_c, 0, 67, 0
3, 106496, Note_on_c, 0, 72, 102
3, 106496, Note_on_c, 0, 63, 102
3, 107008, Note_off_c, 0, 72, 0
3, 107008, Note_on_c, 0, 77, 102
3, 107008, Note_off_c, 0, 63, 0
3, 107008, Note_on_c, 0, 68, 102
3, 107520, Note_off_c, 0, 77, 0
3, 107520, Note_on_c, 0, 75, 102
3, 107520, Note_off_c, 0, 68, 0
3, 107520, Note_on_c, 0, 67, 102
3, 108032, Note_off_c, 0, 75, 0
3, 108032, Note_on_c, 0, 74, 102
3, 108032, Note_off_c, 0, 67, 0
3, 108032, Note_on_c, 0, 65, 102
3, 108544, Note_off_c, 0, 74, 0
3, 108544, Note_off_c, 0, 65, 0
3, 108544, Note_on_c, 0, 63, 102
3, 109056, Note_on_c, 0, 68, 102
3, 109056, Note_off_c, 0, 63, 0
3, 109056, Note_on_c, 0, 62, 102
3, 109568, Note_off_c, 0, 68, 0
3, 109568, Note_on_c, 0, 67, 102
3, 109568, Note_off_c, 0, 62, 0
3, 109568, Note_on_c, 0, 63, 102
3, 110080, Note_off_c, 0, 67, 0
3, 110080, Note_on_c, 0, 65, 102
3, 110080, Note_off_c, 0, 63, 0
3, 110080, Note_on_c, 0, 65, 102
3, 110592, Note_off_c, 0, 65, 0
3, 110592, Note_off_c, 0, 65, 0
3, 110592, Note_on_c, 0, 67, 102
3, 110592, Note_on_c, 0, 59, 102
3, 111104, Note_off_c, 0, 67, 0
3, 111104, Note_on_c, 0, 65, 102
3, 111104, Note_off_c, 0, 59, 0
3, 111104, Note_on_c, 0, 60, 102
3, 111360, Note_off_c, 0, 65, 0
3, 111360, Note_on_c, 0, 63, 102
3, 111616, Note_off_c, 0, 63, 0
3, 111616, Note_on_c, 0, 65, 102
3, 111616, Note_off_c, 0, 60, 0
3, 111616, Note_on_c, 0, 62, 102
3, 112077, Note_off_c, 0, 62, 0
3, 112128, Note_off_c, 0, 65, 0
3, 112128, Note_on_c, 0, 62, 102
3, 112128, Note_on_c, 0, 59, 102
3, 112640, Note_off_c, 0, 62, 0
3, 112640, Note_on_c, 0, 68, 102
3, 112640, Note_off_c, 0, 59, 0
3, 112640, Note_on_c, 0, 59, 102
3, 113152, Note_off_c, 0, 68, 0
3, 113152, Note_on_c, 0, 67, 102
3, 113152, Note_off_c, 0, 59, 0
3, 113152, Note_on_c, 0, 60, 102
3, 113664, Note_off_c, 0, 67, 0
3, 113664, Note_off_c, 0, 60, 0
3, 114176, Note_on_c, 0, 69, 102
3, 114176, Note_on_c, 0, 60, 102
3, 114688, Note_off_c, 0, 69, 0
3, 114688, Note_off_c, 0, 60, 0
3, 114688, Note_on_c, 0, 71, 102
3, 114688, Note_on_c, 0, 65, 102
3, 114944, Note_off_c, 0, 65, 0
3, 114944, Note_on_c, 0, 62, 102
3, 115200, Note_off_c, 0, 71, 0
3, 115200, Note_on_c, 0, 72, 102
3, 115200, Note_off_c, 0, 62, 0
3, 115200, Note_on_c, 0, 63, 102
3, 115456, Note_off_c, 0, 63, 0
3, 115456, Note_on_c, 0, 60, 102
3, 115712, Note_off_c, 0, 72, 0
3, 115712, Note_on_c, 0, 65, 102
3, 115968, Note_off_c, 0, 65, 0
3, 115968, Note_on_c, 0, 63, 102
3, 116224, Note_off_c, 0, 63, 0
3, 116224, Note_on_c, 0, 62, 102
3, 116224, Note_off_c, 0, 60, 0
3, 116224, Note_on_c, 0, 59, 102
3, 116480, Note_off_c, 0, 62, 0
3, 116480, Note_on_c, 0, 60, 102
3, 116710, Note_off_c, 0, 60, 0
3, 116736, Note_on_c, 0, 60, 102
3, 116736, Note_off_c, 0, 59, 0
3, 117248, Note_off_c, 0, 60, 0
3, 117248, Note_on_c, 0, 72, 102
3, 117504, Note_off_c, 0, 72, 0
3, 117504, Note_on_c, 0, 71, 102
3, 117760, Note_off_c, 0, 71, 0
3, 117760, Note_on_c, 0, 72, 102
3, 118272, Note_off_c, 0, 72, 0
3, 118272, Note_on_c, 0, 67, 102
3, 118784, Note_off_c, 0, 67, 0
3, 118784, Note_on_c, 0, 68, 102
3, 119296, Note_off_c, 0, 68, 0
3, 119296, Note_on_c, 0, 72, 100
3, 119552, Note_off_c, 0, 72, 0
3, 119552, Note_on_c, 0, 71, 100
3, 119808, Note_off_c, 0, 71, 0
3, 119808, Note_on_c, 0, 72, 98
3, 120320, Note_off_c, 0, 72, 0
3, 120320, Note_on_c, 0, 71, 96
3, 120320, Note_on_c, 0, 74, 96
3, 120832, Note_off_c, 0, 71, 0
3, 120832, Note_off_c, 0, 74, 0
3, 120832, Note_on_c, 0, 67, 92
3, 121344, Note_off_c, 0, 67, 0
3, 121344, Note_on_c, 0, 72, 92
3, 121600, Note_off_c, 0, 72, 0
3, 121600, Note_on_c, 0, 71, 92
3, 121856, Note_off_c, 0, 71, 0
3, 121856, Note_on_c, 0, 72, 92
3, 122368, Note_off_c, 0, 72, 0
3, 122368, Note_on_c, 0, 74, 92
3, 122880, Note_off_c, 0, 74, 0
3, 122880, Note_on_c, 0, 65, 90
3, 123136, Note_off_c, 0, 65, 0
3, 123136, Note_on_c, 0, 67, 90
3, 123392, Note_off_c, 0, 67, 0
3, 123392, Note_on_c, 0, 68, 90
3, 124416, Note_off_c, 0, 68, 0
3, 124416, Note_on_c, 0, 67, 90
3, 124672, Note_off_c, 0, 67, 0
3, 124672, Note_on_c, 0, 65, 90
3, 124928, Note_off_c, 0, 65, 0
3, 124928, Note_on_c, 0, 64, 90
3, 124928, Note_on_c, 0, 60, 90
3, 129024, Note_off_c, 0, 64, 0
3, 129024, Note_off_c, 0, 60, 0
3, 129024, End_track
4, 0, Start_track
4, 1, Copyright_t, "___________________________________________________\012\012KUNSTDERFUGE.COM LARGE CLASSICAL MIDI COLLECTION\012ONCLASSICAL BY ALESSANDRO SIMONETTO, PROPRIETOR\012___________________________________________________\012\012! Attention: this file is under copyright !\012\012(c)onclassical, (c)bachovich, 2010\012___________________________________________________\012\012NO ONE MAY REPUBLISH THIS FILE WITHOUT PERMISSION\012COMMERCIAL USES OF THIS FILE IS STRICTLY PROHIBITED\012___________________________________________________\012\012Files & contributor's list: http://kunstderfuge.com/\012Terms and conditions: http://kunstderfuge.com/notes.htm"
4, 1, End_track
0, 0, End_of_file
